<svg width="255" height="40" viewBox="0 0 255 40" fill="none" xmlns="http://www.w3.org/2000/svg">
<rect width="255" height="40" rx="8" fill="#E1E9F4"/>
<path d="M24.0001 14.25C24.1499 14.25 24.2963 14.2949 24.4203 14.3789C24.5444 14.4628 24.6404 14.582 24.6961 14.721C25.0501 15.607 25.4891 16.166 25.9361 16.519C26.3801 16.872 26.8681 17.049 27.3661 17.113C28.3931 17.246 29.4471 16.901 30.0981 16.614L30.1151 16.607C30.2081 16.566 30.3121 16.52 30.4011 16.487H30.4061C30.5814 16.42 30.772 16.4038 30.9561 16.44C31.0883 16.4693 31.2126 16.5269 31.3205 16.6087C31.4283 16.6905 31.5172 16.7946 31.5811 16.914C31.7051 17.144 31.6911 17.376 31.6861 17.452V17.454C31.6791 17.548 31.6631 17.658 31.6501 17.753C31.3881 19.586 31.1221 21.418 30.8651 23.251C30.7351 24.171 30.2461 24.744 29.3311 25.009C25.8458 25.9968 22.1545 25.9968 18.6691 25.009C17.7541 24.744 17.2641 24.171 17.1351 23.251C16.8781 21.418 16.6121 19.586 16.3501 17.753C16.3344 17.6538 16.3224 17.5541 16.3141 17.454V17.452C16.2984 17.2664 16.3347 17.0801 16.4191 16.914C16.483 16.7946 16.572 16.6905 16.6798 16.6087C16.7877 16.5269 16.912 16.4693 17.0441 16.44C17.2282 16.4034 17.4188 16.4194 17.5941 16.486L17.5981 16.488C17.6881 16.52 17.7921 16.566 17.8851 16.607L17.9021 16.614C18.5521 16.901 19.6061 17.246 20.6321 17.114C21.1556 17.052 21.6517 16.846 22.0651 16.519C22.5101 16.166 22.9491 15.607 23.3041 14.721C23.3599 14.582 23.4559 14.4628 23.58 14.3789C23.704 14.2949 23.8504 14.25 24.0001 14.25Z" fill="#FFA600"/>
<path d="M49.728 12.4H58.908V25H57.306V13.876H51.294V25H49.728V12.4ZM66.4025 25.216C65.4425 25.216 64.5665 25 63.7745 24.568C62.9825 24.124 62.3645 23.518 61.9205 22.75C61.4765 21.97 61.2545 21.1 61.2545 20.14C61.2545 18.676 61.7405 17.464 62.7125 16.504C63.6965 15.544 64.9265 15.064 66.4025 15.064C67.3745 15.064 68.2505 15.286 69.0305 15.73C69.8225 16.162 70.4405 16.768 70.8845 17.548C71.3405 18.316 71.5685 19.18 71.5685 20.14C71.5685 21.592 71.0765 22.804 70.0925 23.776C69.1085 24.736 67.8785 25.216 66.4025 25.216ZM63.8285 22.732C64.5125 23.404 65.3705 23.74 66.4025 23.74C67.4465 23.74 68.3045 23.404 68.9765 22.732C69.6605 22.048 70.0025 21.184 70.0025 20.14C70.0025 19.096 69.6605 18.238 68.9765 17.566C68.3045 16.882 67.4465 16.54 66.4025 16.54C65.3705 16.54 64.5125 16.882 63.8285 17.566C63.1565 18.238 62.8205 19.096 62.8205 20.14C62.8205 21.184 63.1565 22.048 63.8285 22.732ZM73.8937 15.28H82.1377V25H80.6257V16.684H75.4237V25H73.8937V15.28ZM92.3236 15.28H93.9616L89.3356 25.396C88.9756 26.188 88.6216 26.8 88.2736 27.232C87.9256 27.664 87.5356 27.976 87.1036 28.168C86.6716 28.372 86.1436 28.474 85.5196 28.474H84.6016V27.088H85.3936C86.0416 27.088 86.5276 26.956 86.8516 26.692C87.1756 26.428 87.5356 25.888 87.9316 25.072L88.2736 24.334L83.9536 15.28H85.6276L89.0836 22.642L92.3236 15.28ZM96.8895 15.28H103.262V25H101.732V16.612H98.1675L97.6635 21.526C97.5315 22.81 97.2015 23.722 96.6735 24.262C96.1455 24.79 95.3535 25.054 94.2975 25.054H94.0275V23.614H94.3695C94.9215 23.614 95.3415 23.458 95.6295 23.146C95.9175 22.822 96.0975 22.312 96.1695 21.616L96.8895 15.28ZM108.881 15.28H113.345V25H111.833V21.274H109.403L107.099 25H105.407L107.837 21.058C107.201 20.854 106.697 20.506 106.325 20.014C105.953 19.522 105.767 18.946 105.767 18.286C105.767 17.422 106.061 16.708 106.649 16.144C107.237 15.568 107.981 15.28 108.881 15.28ZM109.007 19.798H111.833V16.756H109.007C108.503 16.756 108.095 16.9 107.783 17.188C107.471 17.464 107.315 17.83 107.315 18.286C107.315 18.73 107.471 19.096 107.783 19.384C108.095 19.66 108.503 19.798 109.007 19.798ZM121.563 15.064C123.015 15.064 124.209 15.544 125.145 16.504C126.093 17.464 126.567 18.676 126.567 20.14C126.567 21.592 126.093 22.804 125.145 23.776C124.209 24.736 123.015 25.216 121.563 25.216C120.099 25.216 118.893 24.712 117.945 23.704V28.474H116.415V15.28H117.459L117.765 16.774C118.221 16.234 118.773 15.814 119.421 15.514C120.081 15.214 120.795 15.064 121.563 15.064ZM121.455 23.74C122.487 23.74 123.339 23.398 124.011 22.714C124.683 22.03 125.019 21.172 125.019 20.14C125.019 19.108 124.683 18.25 124.011 17.566C123.339 16.882 122.487 16.54 121.455 16.54C120.423 16.54 119.565 16.888 118.881 17.584C118.209 18.268 117.873 19.12 117.873 20.14C117.873 20.812 118.023 21.424 118.323 21.976C118.635 22.528 119.067 22.96 119.619 23.272C120.171 23.584 120.783 23.74 121.455 23.74ZM135.592 15.28H137.086V25H135.592V20.698H130.39V25H128.896V15.28H130.39V19.258H135.592V15.28ZM144.087 18.34C145.107 18.34 145.941 18.652 146.589 19.276C147.237 19.888 147.561 20.692 147.561 21.688C147.561 22.66 147.237 23.458 146.589 24.082C145.941 24.694 145.107 25 144.087 25H140.181V15.28H141.675V18.34H144.087ZM149.325 15.28H150.855V25H149.325V15.28ZM143.889 23.632C144.525 23.632 145.035 23.452 145.419 23.092C145.803 22.732 145.995 22.264 145.995 21.688C145.995 21.1 145.803 20.626 145.419 20.266C145.035 19.894 144.525 19.708 143.889 19.708H141.675V23.632H143.889ZM163.034 20.176C163.034 20.308 163.022 20.494 162.998 20.734H154.7C154.82 21.634 155.192 22.36 155.816 22.912C156.44 23.452 157.208 23.722 158.12 23.722C158.792 23.722 159.386 23.578 159.902 23.29C160.43 22.99 160.85 22.57 161.162 22.03H162.764C162.356 23.038 161.744 23.824 160.928 24.388C160.112 24.94 159.176 25.216 158.12 25.216C156.716 25.216 155.54 24.73 154.592 23.758C153.644 22.786 153.17 21.58 153.17 20.14C153.17 18.688 153.644 17.482 154.592 16.522C155.54 15.55 156.716 15.064 158.12 15.064C159.572 15.064 160.754 15.556 161.666 16.54C162.578 17.524 163.034 18.736 163.034 20.176ZM158.12 16.522C157.544 16.522 157.016 16.636 156.536 16.864C156.068 17.092 155.678 17.422 155.366 17.854C155.054 18.274 154.844 18.76 154.736 19.312H161.486C161.378 18.748 161.168 18.256 160.856 17.836C160.544 17.404 160.154 17.08 159.686 16.864C159.218 16.636 158.696 16.522 158.12 16.522ZM177.12 15.28H178.758L174.132 25.396C173.772 26.188 173.418 26.8 173.07 27.232C172.722 27.664 172.332 27.976 171.9 28.168C171.468 28.372 170.94 28.474 170.316 28.474H169.398V27.088H170.19C170.838 27.088 171.324 26.956 171.648 26.692C171.972 26.428 172.332 25.888 172.728 25.072L173.07 24.334L168.75 15.28H170.424L173.88 22.642L177.12 15.28ZM184.525 25.216C183.577 25.216 182.713 25 181.933 24.568C181.165 24.124 180.559 23.512 180.115 22.732C179.683 21.952 179.467 21.088 179.467 20.14C179.467 18.688 179.947 17.482 180.907 16.522C181.879 15.55 183.085 15.064 184.525 15.064C185.677 15.064 186.673 15.382 187.513 16.018C188.365 16.654 188.941 17.5 189.241 18.556H187.729C187.441 17.932 187.009 17.44 186.433 17.08C185.869 16.72 185.233 16.54 184.525 16.54C183.529 16.54 182.695 16.888 182.023 17.584C181.363 18.268 181.033 19.12 181.033 20.14C181.033 20.812 181.183 21.424 181.483 21.976C181.783 22.516 182.197 22.948 182.725 23.272C183.265 23.584 183.865 23.74 184.525 23.74C185.233 23.74 185.863 23.56 186.415 23.2C186.979 22.828 187.411 22.318 187.711 21.67H189.259C188.959 22.75 188.377 23.614 187.513 24.262C186.661 24.898 185.665 25.216 184.525 25.216ZM192.972 15.28H199.344V25H197.814V16.612H194.25L193.746 21.526C193.614 22.81 193.284 23.722 192.756 24.262C192.228 24.79 191.436 25.054 190.38 25.054H190.11V23.614H190.452C191.004 23.614 191.424 23.458 191.712 23.146C192 22.822 192.18 22.312 192.252 21.616L192.972 15.28ZM209.517 15.28H211.155L206.529 25.396C206.169 26.188 205.815 26.8 205.467 27.232C205.119 27.664 204.729 27.976 204.297 28.168C203.865 28.372 203.337 28.474 202.713 28.474H201.795V27.088H202.587C203.235 27.088 203.721 26.956 204.045 26.692C204.369 26.428 204.729 25.888 205.125 25.072L205.467 24.334L201.147 15.28H202.821L206.277 22.642L209.517 15.28ZM219.02 15.28V16.648H214.466V25H212.972V15.28H219.02ZM228.028 15.28H228.874V25H227.434V18.052L221.764 25H220.882V15.28H222.34V22.174L228.028 15.28Z" fill="#0A1E3B"/>
</svg>
