<svg width="89" height="88" viewBox="0 0 89 88" fill="none" xmlns="http://www.w3.org/2000/svg">
<rect x="0.666992" width="88" height="88" rx="16" fill="#E2E9F3"/>
<path d="M27.211 20C23.599 20 20.667 23.072 20.667 26.856V57.716C20.667 63.396 25.063 68 30.487 68H56.667V26.856C56.667 23.072 53.735 20 50.123 20H27.211Z" fill="url(#paint0_linear_60_393)"/>
<path d="M56.667 52H68.667V60C68.667 62.1217 67.8241 64.1566 66.3238 65.6569C64.8236 67.1571 62.7887 68 60.667 68H56.667V52Z" fill="url(#paint1_linear_60_393)"/>
<path d="M30.667 34C30.667 33.4696 30.8777 32.9609 31.2528 32.5858C31.6279 32.2107 32.1366 32 32.667 32H44.667C45.1974 32 45.7061 32.2107 46.0812 32.5858C46.4563 32.9609 46.667 33.4696 46.667 34C46.667 34.5304 46.4563 35.0391 46.0812 35.4142C45.7061 35.7893 45.1974 36 44.667 36H32.667C32.1366 36 31.6279 35.7893 31.2528 35.4142C30.8777 35.0391 30.667 34.5304 30.667 34Z" fill="url(#paint2_linear_60_393)"/>
<path d="M30.667 34C30.667 33.4696 30.8777 32.9609 31.2528 32.5858C31.6279 32.2107 32.1366 32 32.667 32H44.667C45.1974 32 45.7061 32.2107 46.0812 32.5858C46.4563 32.9609 46.667 33.4696 46.667 34C46.667 34.5304 46.4563 35.0391 46.0812 35.4142C45.7061 35.7893 45.1974 36 44.667 36H32.667C32.1366 36 31.6279 35.7893 31.2528 35.4142C30.8777 35.0391 30.667 34.5304 30.667 34Z" fill="url(#paint3_linear_60_393)"/>
<path d="M30.667 44C30.667 43.4696 30.8777 42.9609 31.2528 42.5858C31.6279 42.2107 32.1366 42 32.667 42H44.667C45.1974 42 45.7061 42.2107 46.0812 42.5858C46.4563 42.9609 46.667 43.4696 46.667 44C46.667 44.5304 46.4563 45.0391 46.0812 45.4142C45.7061 45.7893 45.1974 46 44.667 46H32.667C32.1366 46 31.6279 45.7893 31.2528 45.4142C30.8777 45.0391 30.667 44.5304 30.667 44Z" fill="url(#paint4_linear_60_393)"/>
<path d="M30.667 44C30.667 43.4696 30.8777 42.9609 31.2528 42.5858C31.6279 42.2107 32.1366 42 32.667 42H44.667C45.1974 42 45.7061 42.2107 46.0812 42.5858C46.4563 42.9609 46.667 43.4696 46.667 44C46.667 44.5304 46.4563 45.0391 46.0812 45.4142C45.7061 45.7893 45.1974 46 44.667 46H32.667C32.1366 46 31.6279 45.7893 31.2528 45.4142C30.8777 45.0391 30.667 44.5304 30.667 44Z" fill="url(#paint5_linear_60_393)"/>
<path d="M30.667 54C30.667 53.4696 30.8777 52.9609 31.2528 52.5858C31.6279 52.2107 32.1366 52 32.667 52H38.667C39.1974 52 39.7061 52.2107 40.0812 52.5858C40.4563 52.9609 40.667 53.4696 40.667 54C40.667 54.5304 40.4563 55.0391 40.0812 55.4142C39.7061 55.7893 39.1974 56 38.667 56H32.667C32.1366 56 31.6279 55.7893 31.2528 55.4142C30.8777 55.0391 30.667 54.5304 30.667 54Z" fill="url(#paint6_linear_60_393)"/>
<path d="M30.667 54C30.667 53.4696 30.8777 52.9609 31.2528 52.5858C31.6279 52.2107 32.1366 52 32.667 52H38.667C39.1974 52 39.7061 52.2107 40.0812 52.5858C40.4563 52.9609 40.667 53.4696 40.667 54C40.667 54.5304 40.4563 55.0391 40.0812 55.4142C39.7061 55.7893 39.1974 56 38.667 56H32.667C32.1366 56 31.6279 55.7893 31.2528 55.4142C30.8777 55.0391 30.667 54.5304 30.667 54Z" fill="url(#paint7_linear_60_393)"/>
<defs>
<linearGradient id="paint0_linear_60_393" x1="27.211" y1="21.716" x2="43.219" y2="67.552" gradientUnits="userSpaceOnUse">
<stop stop-color="#FFE06B"/>
<stop offset="0.645" stop-color="#FFB357"/>
<stop offset="1" stop-color="#FF921F"/>
</linearGradient>
<linearGradient id="paint1_linear_60_393" x1="68.667" y1="58.4" x2="57.203" y2="60.88" gradientUnits="userSpaceOnUse">
<stop stop-color="#FE8401"/>
<stop offset="1" stop-color="#CA6407"/>
</linearGradient>
<linearGradient id="paint2_linear_60_393" x1="27.867" y1="52" x2="29.691" y2="59.66" gradientUnits="userSpaceOnUse">
<stop stop-color="#FF921F"/>
<stop offset="1" stop-color="#CA6407"/>
</linearGradient>
<linearGradient id="paint3_linear_60_393" x1="27.467" y1="32" x2="51.159" y2="50.956" gradientUnits="userSpaceOnUse">
<stop stop-color="#FF921F"/>
<stop offset="1" stop-color="#CA6407"/>
</linearGradient>
<linearGradient id="paint4_linear_60_393" x1="27.867" y1="52" x2="29.691" y2="59.66" gradientUnits="userSpaceOnUse">
<stop stop-color="#FF921F"/>
<stop offset="1" stop-color="#CA6407"/>
</linearGradient>
<linearGradient id="paint5_linear_60_393" x1="27.467" y1="32" x2="51.159" y2="50.956" gradientUnits="userSpaceOnUse">
<stop stop-color="#FF921F"/>
<stop offset="1" stop-color="#CA6407"/>
</linearGradient>
<linearGradient id="paint6_linear_60_393" x1="27.867" y1="52" x2="29.691" y2="59.66" gradientUnits="userSpaceOnUse">
<stop stop-color="#FF921F"/>
<stop offset="1" stop-color="#CA6407"/>
</linearGradient>
<linearGradient id="paint7_linear_60_393" x1="27.467" y1="32" x2="51.159" y2="50.956" gradientUnits="userSpaceOnUse">
<stop stop-color="#FF921F"/>
<stop offset="1" stop-color="#CA6407"/>
</linearGradient>
</defs>
</svg>
