<svg width="383" height="32" viewBox="0 0 383 32" fill="none" xmlns="http://www.w3.org/2000/svg">
<path d="M6.672 20.176C4.93333 20.176 3.50933 19.6373 2.4 18.56C1.29067 17.4827 0.736 16.1013 0.736 14.416C0.736 12.7307 1.29067 11.3493 2.4 10.272C3.50933 9.19467 4.93333 8.656 6.672 8.656C8.4 8.656 9.81867 9.19467 10.928 10.272C12.048 11.3493 12.608 12.7307 12.608 14.416C12.608 16.1013 12.048 17.4827 10.928 18.56C9.81867 19.6373 8.4 20.176 6.672 20.176ZM3.232 17.792C4.128 18.6667 5.27467 19.104 6.672 19.104C8.06933 19.104 9.216 18.6667 10.112 17.792C11.008 16.9173 11.456 15.792 11.456 14.416C11.456 13.04 11.008 11.9147 10.112 11.04C9.216 10.1653 8.06933 9.728 6.672 9.728C5.27467 9.728 4.128 10.1653 3.232 11.04C2.336 11.9147 1.888 13.04 1.888 14.416C1.888 15.792 2.336 16.9173 3.232 17.792ZM6.672 17.344C5.82933 17.344 5.12 17.0613 4.544 16.496C3.97867 15.92 3.696 15.2213 3.696 14.4C3.696 13.5467 3.97867 12.8427 4.544 12.288C5.10933 11.7227 5.81867 11.44 6.672 11.44C7.35467 11.44 7.94667 11.6373 8.448 12.032C8.94933 12.416 9.28 12.9333 9.44 13.584H8.272C8.176 13.3707 8.048 13.1893 7.888 13.04C7.728 12.8907 7.54667 12.7787 7.344 12.704C7.14133 12.6187 6.91733 12.576 6.672 12.576C6.416 12.576 6.176 12.624 5.952 12.72C5.73867 12.816 5.552 12.944 5.392 13.104C5.232 13.264 5.104 13.456 5.008 13.68C4.92267 13.904 4.88 14.144 4.88 14.4C4.88 14.912 5.05067 15.3387 5.392 15.68C5.73333 16.0213 6.16 16.192 6.672 16.192C7.41867 16.192 7.94667 15.8507 8.256 15.168H9.456C9.296 15.8187 8.96 16.3467 8.448 16.752C7.94667 17.1467 7.35467 17.344 6.672 17.344ZM21.2626 18.368H25.2306V20H17.9506V19.536C19.54 17.7973 20.6866 16.5013 21.3906 15.648C22.1053 14.784 22.58 14.128 22.8146 13.68C23.0493 13.232 23.1666 12.7893 23.1666 12.352C23.1666 12.0427 23.0973 11.7707 22.9586 11.536C22.8306 11.3013 22.644 11.12 22.3986 10.992C22.164 10.8533 21.8866 10.784 21.5666 10.784C21.0653 10.784 20.66 10.9333 20.3506 11.232C20.052 11.52 19.9026 11.8987 19.9026 12.368V12.608H18.1746V12.368C18.1746 11.408 18.484 10.6347 19.1026 10.048C19.7213 9.45067 20.5373 9.152 21.5506 9.152C22.5426 9.152 23.348 9.45067 23.9666 10.048C24.596 10.6453 24.9106 11.4133 24.9106 12.352C24.9106 12.8427 24.82 13.3173 24.6386 13.776C24.468 14.2347 24.116 14.8267 23.5826 15.552C23.06 16.2667 22.2866 17.2053 21.2626 18.368ZM30.9771 20.192C29.6865 20.192 28.6625 19.696 27.9051 18.704C27.1478 17.712 26.7691 16.368 26.7691 14.672C26.7691 12.976 27.1425 11.6373 27.8891 10.656C28.6465 9.664 29.6758 9.168 30.9771 9.168C32.2678 9.168 33.2865 9.664 34.0331 10.656C34.7905 11.6373 35.1691 12.976 35.1691 14.672C35.1691 16.368 34.7905 17.712 34.0331 18.704C33.2758 19.696 32.2571 20.192 30.9771 20.192ZM30.9771 18.56C31.7451 18.56 32.3425 18.2187 32.7691 17.536C33.2065 16.8533 33.4251 15.8987 33.4251 14.672C33.4251 13.8613 33.3238 13.168 33.1211 12.592C32.9291 12.0053 32.6465 11.5627 32.2731 11.264C31.9105 10.9547 31.4785 10.8 30.9771 10.8C30.4651 10.8 30.0225 10.9547 29.6491 11.264C29.2758 11.5627 28.9931 12.0053 28.8011 12.592C28.6091 13.168 28.5131 13.8613 28.5131 14.672C28.5131 15.8987 28.7265 16.8533 29.1531 17.536C29.5905 18.2187 30.1985 18.56 30.9771 18.56ZM39.8564 18.368H43.8244V20H36.5444V19.536C38.1337 17.7973 39.2804 16.5013 39.9844 15.648C40.699 14.784 41.1737 14.128 41.4084 13.68C41.643 13.232 41.7604 12.7893 41.7604 12.352C41.7604 12.0427 41.691 11.7707 41.5524 11.536C41.4244 11.3013 41.2377 11.12 40.9924 10.992C40.7577 10.8533 40.4804 10.784 40.1604 10.784C39.659 10.784 39.2537 10.9333 38.9444 11.232C38.6457 11.52 38.4964 11.8987 38.4964 12.368V12.608H36.7684V12.368C36.7684 11.408 37.0777 10.6347 37.6964 10.048C38.315 9.45067 39.131 9.152 40.1444 9.152C41.1364 9.152 41.9417 9.45067 42.5604 10.048C43.1897 10.6453 43.5044 11.4133 43.5044 12.352C43.5044 12.8427 43.4137 13.3173 43.2324 13.776C43.0617 14.2347 42.7097 14.8267 42.1764 15.552C41.6537 16.2667 40.8804 17.2053 39.8564 18.368ZM48.7069 13.184C49.7949 13.184 50.6855 13.5147 51.3789 14.176C52.0829 14.8373 52.4349 15.664 52.4349 16.656C52.4349 17.6693 52.0882 18.512 51.3949 19.184C50.7015 19.856 49.8375 20.192 48.8029 20.192C47.7789 20.192 46.9255 19.872 46.2429 19.232C45.5709 18.592 45.2189 17.776 45.1869 16.784H46.9149C46.9362 17.3067 47.1229 17.7333 47.4749 18.064C47.8269 18.3947 48.2695 18.56 48.8029 18.56C49.3469 18.56 49.7949 18.3787 50.1469 18.016C50.5095 17.6533 50.6909 17.2 50.6909 16.656C50.6909 16.4747 50.6642 16.2987 50.6109 16.128C50.5682 15.9573 50.5042 15.8027 50.4189 15.664C50.3335 15.5147 50.2269 15.3813 50.0989 15.264C49.9815 15.1467 49.8482 15.0453 49.6989 14.96C49.5495 14.8747 49.3842 14.8107 49.2029 14.768C49.0322 14.7253 48.8455 14.704 48.6429 14.704H45.8269L45.6189 14.464L46.1949 9.36H51.6989V10.928H47.5869L47.3469 13.184H48.7069ZM58.5334 20V8.8H60.3734V20H58.5334ZM69.6849 14.16C70.1755 14.4053 70.5595 14.768 70.8369 15.248C71.1249 15.7173 71.2689 16.256 71.2689 16.864C71.2689 17.7387 70.9329 18.48 70.2609 19.088C69.5995 19.696 68.7889 20 67.8289 20H63.2209V8.8H67.7329C68.6715 8.8 69.4449 9.07733 70.0529 9.632C70.6715 10.176 70.9809 10.8587 70.9809 11.68C70.9809 12.1707 70.8635 12.6453 70.6289 13.104C70.3942 13.552 70.0795 13.904 69.6849 14.16ZM69.1569 11.952C69.1569 11.5253 69.0075 11.1787 68.7089 10.912C68.4209 10.6347 68.0582 10.496 67.6209 10.496H65.0289V13.408H67.6209C68.0689 13.408 68.4369 13.2693 68.7249 12.992C69.0129 12.7147 69.1569 12.368 69.1569 11.952ZM67.7169 18.24C68.2075 18.24 68.6075 18.0907 68.9169 17.792C69.2369 17.4933 69.3969 17.1147 69.3969 16.656C69.3969 16.1973 69.2369 15.8187 68.9169 15.52C68.6075 15.2213 68.2075 15.072 67.7169 15.072H65.0289V18.24H67.7169ZM81.053 20.176C80.2103 20.176 79.469 20.0267 78.829 19.728C78.1997 19.4293 77.709 19.0027 77.357 18.448C77.005 17.8827 76.829 17.2267 76.829 16.48H78.685C78.685 17.0773 78.9037 17.552 79.341 17.904C79.789 18.2453 80.3543 18.416 81.037 18.416C81.6557 18.416 82.1783 18.2667 82.605 17.968C83.0317 17.6587 83.245 17.2587 83.245 16.768C83.245 16.5867 83.213 16.4213 83.149 16.272C83.0957 16.1227 82.9997 15.9947 82.861 15.888C82.733 15.7813 82.605 15.6907 82.477 15.616C82.3597 15.5307 82.1783 15.4507 81.933 15.376C81.6983 15.3013 81.5063 15.248 81.357 15.216C81.2077 15.1733 80.9837 15.1147 80.685 15.04C80.3543 14.9653 80.1037 14.9067 79.933 14.864C79.7623 14.8107 79.5223 14.736 79.213 14.64C78.9143 14.5333 78.6797 14.432 78.509 14.336C78.349 14.24 78.157 14.112 77.933 13.952C77.709 13.7813 77.5383 13.6053 77.421 13.424C77.3143 13.232 77.2183 13.0027 77.133 12.736C77.0477 12.4693 77.005 12.1707 77.005 11.84C77.005 10.8373 77.357 10.0533 78.061 9.488C78.7757 8.92267 79.7303 8.64 80.925 8.64C82.141 8.64 83.0903 8.94933 83.773 9.568C84.4557 10.176 84.797 11.008 84.797 12.064H82.973C82.973 11.5307 82.7757 11.1147 82.381 10.816C81.997 10.5067 81.501 10.352 80.893 10.352C80.3063 10.352 79.8157 10.48 79.421 10.736C79.037 10.9813 78.845 11.328 78.845 11.776C78.845 11.968 78.893 12.144 78.989 12.304C79.085 12.464 79.197 12.5973 79.325 12.704C79.453 12.8 79.645 12.896 79.901 12.992C80.157 13.088 80.3703 13.1627 80.541 13.216C80.7223 13.2587 80.9837 13.3227 81.325 13.408C81.5917 13.472 81.789 13.52 81.917 13.552C82.0557 13.584 82.253 13.6427 82.509 13.728C82.765 13.8027 82.9623 13.872 83.101 13.936C83.2397 13.9893 83.4157 14.0693 83.629 14.176C83.8423 14.2827 84.0077 14.3893 84.125 14.496C84.2423 14.6027 84.3703 14.736 84.509 14.896C84.6583 15.056 84.7703 15.2267 84.845 15.408C84.9197 15.5787 84.9837 15.7813 85.037 16.016C85.0903 16.24 85.117 16.48 85.117 16.736C85.117 17.824 84.733 18.672 83.965 19.28C83.197 19.8773 82.2263 20.176 81.053 20.176ZM95.3001 15.696C95.3001 15.856 95.2895 16.0533 95.2681 16.288H88.2601C88.3668 16.9813 88.6548 17.5307 89.1241 17.936C89.6041 18.3413 90.1961 18.544 90.9001 18.544C91.2415 18.544 91.5615 18.496 91.8601 18.4C92.1588 18.2933 92.4201 18.1493 92.6441 17.968C92.8788 17.776 93.0708 17.5467 93.2201 17.28H95.0921C94.7508 18.1973 94.2068 18.9173 93.4601 19.44C92.7135 19.952 91.8601 20.208 90.9001 20.208C89.6308 20.208 88.5695 19.776 87.7161 18.912C86.8735 18.048 86.4521 16.9707 86.4521 15.68C86.4521 14.3893 86.8735 13.312 87.7161 12.448C88.5695 11.584 89.6308 11.152 90.9001 11.152C91.7641 11.152 92.5321 11.36 93.2041 11.776C93.8761 12.1813 94.3935 12.7307 94.7561 13.424C95.1188 14.1067 95.3001 14.864 95.3001 15.696ZM90.9001 12.752C90.2388 12.752 89.6735 12.9387 89.2041 13.312C88.7455 13.6853 88.4415 14.1973 88.2921 14.848H93.5241C93.4175 14.4107 93.2415 14.0373 92.9961 13.728C92.7508 13.408 92.4468 13.168 92.0841 13.008C91.7321 12.8373 91.3375 12.752 90.9001 12.752ZM101.33 11.312H102.098V12.992H101.17C99.6979 12.992 98.9619 13.792 98.9619 15.392V20H97.1859V11.36H98.3859L98.6899 12.544C99.3085 11.7227 100.189 11.312 101.33 11.312ZM109.403 11.36H111.227L107.675 20H106.043L102.395 11.36H104.267L106.859 17.776L109.403 11.36ZM112.685 10.016V8.192H114.525V10.016H112.685ZM112.717 20V11.36H114.493V20H112.717ZM120.902 20.208C119.622 20.208 118.545 19.776 117.67 18.912C116.806 18.0373 116.374 16.96 116.374 15.68C116.374 14.3893 116.806 13.312 117.67 12.448C118.545 11.584 119.627 11.152 120.918 11.152C121.974 11.152 122.891 11.4507 123.67 12.048C124.449 12.6453 124.955 13.44 125.19 14.432H123.43C123.206 13.9413 122.87 13.5573 122.422 13.28C121.974 12.992 121.467 12.848 120.902 12.848C120.401 12.848 119.942 12.9707 119.526 13.216C119.11 13.4613 118.779 13.8027 118.534 14.24C118.299 14.6667 118.182 15.1467 118.182 15.68C118.182 16.48 118.443 17.152 118.966 17.696C119.489 18.24 120.134 18.512 120.902 18.512C121.467 18.512 121.969 18.368 122.406 18.08C122.854 17.792 123.195 17.3813 123.43 16.848H125.222C124.977 17.8613 124.459 18.6773 123.67 19.296C122.891 19.904 121.969 20.208 120.902 20.208ZM135.175 15.696C135.175 15.856 135.164 16.0533 135.143 16.288H128.135C128.242 16.9813 128.53 17.5307 128.999 17.936C129.479 18.3413 130.071 18.544 130.775 18.544C131.116 18.544 131.436 18.496 131.735 18.4C132.034 18.2933 132.295 18.1493 132.519 17.968C132.754 17.776 132.946 17.5467 133.095 17.28H134.967C134.626 18.1973 134.082 18.9173 133.335 19.44C132.588 19.952 131.735 20.208 130.775 20.208C129.506 20.208 128.444 19.776 127.591 18.912C126.748 18.048 126.327 16.9707 126.327 15.68C126.327 14.3893 126.748 13.312 127.591 12.448C128.444 11.584 129.506 11.152 130.775 11.152C131.639 11.152 132.407 11.36 133.079 11.776C133.751 12.1813 134.268 12.7307 134.631 13.424C134.994 14.1067 135.175 14.864 135.175 15.696ZM130.775 12.752C130.114 12.752 129.548 12.9387 129.079 13.312C128.62 13.6853 128.316 14.1973 128.167 14.848H133.399C133.292 14.4107 133.116 14.0373 132.871 13.728C132.626 13.408 132.322 13.168 131.959 13.008C131.607 12.8373 131.212 12.752 130.775 12.752ZM145.94 14.32H151.924C151.903 16.0373 151.364 17.4507 150.308 18.56C149.252 19.6587 147.908 20.208 146.276 20.208C144.623 20.208 143.252 19.6587 142.164 18.56C141.076 17.4613 140.532 16.0747 140.532 14.4C140.532 12.736 141.071 11.3547 142.148 10.256C143.236 9.15733 144.596 8.608 146.228 8.608C147.593 8.608 148.793 8.99733 149.828 9.776C150.863 10.544 151.508 11.536 151.764 12.752H149.86C149.625 12.0373 149.177 11.4667 148.516 11.04C147.865 10.6027 147.119 10.384 146.276 10.384C145.529 10.384 144.863 10.5547 144.276 10.896C143.689 11.2267 143.231 11.7013 142.9 12.32C142.569 12.928 142.404 13.6213 142.404 14.4C142.404 15.5947 142.761 16.5653 143.476 17.312C144.191 18.0587 145.124 18.432 146.276 18.432C147.161 18.432 147.94 18.2027 148.612 17.744C149.284 17.2747 149.721 16.6613 149.924 15.904H145.94V14.32ZM157.986 11.312H158.754V12.992H157.826C156.354 12.992 155.618 13.792 155.618 15.392V20H153.842V11.36H155.042L155.346 12.544C155.965 11.7227 156.845 11.312 157.986 11.312ZM167.185 18.928C166.31 19.7813 165.211 20.208 163.889 20.208C162.566 20.208 161.462 19.7813 160.577 18.928C159.702 18.064 159.265 16.9813 159.265 15.68C159.265 14.8267 159.462 14.0533 159.857 13.36C160.262 12.6667 160.817 12.128 161.521 11.744C162.235 11.3493 163.025 11.152 163.889 11.152C164.753 11.152 165.537 11.3493 166.241 11.744C166.955 12.128 167.51 12.6667 167.905 13.36C168.31 14.0533 168.513 14.8267 168.513 15.68C168.513 16.9813 168.07 18.064 167.185 18.928ZM163.889 18.512C164.433 18.512 164.918 18.3947 165.345 18.16C165.771 17.9147 166.102 17.5787 166.337 17.152C166.582 16.7147 166.705 16.224 166.705 15.68C166.705 14.8587 166.438 14.1813 165.905 13.648C165.382 13.1147 164.71 12.848 163.889 12.848C163.067 12.848 162.39 13.1147 161.857 13.648C161.334 14.1813 161.073 14.8587 161.073 15.68C161.073 16.5013 161.334 17.1787 161.857 17.712C162.39 18.2453 163.067 18.512 163.889 18.512ZM174.197 20.208C173.013 20.208 172.063 19.856 171.349 19.152C170.634 18.448 170.277 17.5147 170.277 16.352V11.36H172.053V16.096C172.053 16.8533 172.245 17.4453 172.629 17.872C173.013 18.2987 173.535 18.512 174.197 18.512C174.869 18.512 175.397 18.2987 175.781 17.872C176.165 17.4347 176.357 16.8427 176.357 16.096V11.36H178.133V16.352C178.133 17.5147 177.775 18.448 177.061 19.152C176.346 19.856 175.391 20.208 174.197 20.208ZM185.154 11.152C186.007 11.152 186.775 11.3493 187.458 11.744C188.141 12.128 188.674 12.6667 189.058 13.36C189.442 14.0533 189.634 14.8267 189.634 15.68C189.634 16.9813 189.207 18.064 188.354 18.928C187.511 19.7813 186.445 20.208 185.154 20.208C184.045 20.208 183.09 19.8613 182.29 19.168V23.104H180.514V11.36H181.714L182.05 12.416C182.882 11.5733 183.917 11.152 185.154 11.152ZM182.994 17.712C183.527 18.2453 184.199 18.512 185.01 18.512C185.831 18.512 186.509 18.2453 187.042 17.712C187.575 17.168 187.842 16.4907 187.842 15.68C187.842 14.8693 187.575 14.1973 187.042 13.664C186.509 13.12 185.837 12.848 185.026 12.848C184.493 12.848 184.007 12.9707 183.57 13.216C183.133 13.4613 182.791 13.8027 182.546 14.24C182.311 14.6667 182.194 15.1467 182.194 15.68C182.194 16.4907 182.461 17.168 182.994 17.712ZM191.134 20V17.952H193.086V20H191.134ZM206.044 14.16C206.535 14.4053 206.919 14.768 207.196 15.248C207.484 15.7173 207.628 16.256 207.628 16.864C207.628 17.7387 207.292 18.48 206.62 19.088C205.959 19.696 205.148 20 204.188 20H199.58V8.8H204.092C205.031 8.8 205.804 9.07733 206.412 9.632C207.031 10.176 207.34 10.8587 207.34 11.68C207.34 12.1707 207.223 12.6453 206.988 13.104C206.754 13.552 206.439 13.904 206.044 14.16ZM205.516 11.952C205.516 11.5253 205.367 11.1787 205.068 10.912C204.78 10.6347 204.418 10.496 203.98 10.496H201.388V13.408H203.98C204.428 13.408 204.796 13.2693 205.084 12.992C205.372 12.7147 205.516 12.368 205.516 11.952ZM204.076 18.24C204.567 18.24 204.967 18.0907 205.276 17.792C205.596 17.4933 205.756 17.1147 205.756 16.656C205.756 16.1973 205.596 15.8187 205.276 15.52C204.967 15.2213 204.567 15.072 204.076 15.072H201.388V18.24H204.076ZM213.605 20.208C212.325 20.208 211.248 19.776 210.373 18.912C209.509 18.0373 209.077 16.96 209.077 15.68C209.077 14.3893 209.509 13.312 210.373 12.448C211.248 11.584 212.33 11.152 213.621 11.152C214.677 11.152 215.594 11.4507 216.373 12.048C217.152 12.6453 217.658 13.44 217.893 14.432H216.133C215.909 13.9413 215.573 13.5573 215.125 13.28C214.677 12.992 214.17 12.848 213.605 12.848C213.104 12.848 212.645 12.9707 212.229 13.216C211.813 13.4613 211.482 13.8027 211.237 14.24C211.002 14.6667 210.885 15.1467 210.885 15.68C210.885 16.48 211.146 17.152 211.669 17.696C212.192 18.24 212.837 18.512 213.605 18.512C214.17 18.512 214.672 18.368 215.109 18.08C215.557 17.792 215.898 17.3813 216.133 16.848H217.925C217.68 17.8613 217.162 18.6773 216.373 19.296C215.594 19.904 214.672 20.208 213.605 20.208ZM227.878 15.696C227.878 15.856 227.868 16.0533 227.846 16.288H220.838C220.945 16.9813 221.233 17.5307 221.702 17.936C222.182 18.3413 222.774 18.544 223.478 18.544C223.82 18.544 224.14 18.496 224.438 18.4C224.737 18.2933 224.998 18.1493 225.222 17.968C225.457 17.776 225.649 17.5467 225.798 17.28H227.67C227.329 18.1973 226.785 18.9173 226.038 19.44C225.292 19.952 224.438 20.208 223.478 20.208C222.209 20.208 221.148 19.776 220.294 18.912C219.452 18.048 219.03 16.9707 219.03 15.68C219.03 14.3893 219.452 13.312 220.294 12.448C221.148 11.584 222.209 11.152 223.478 11.152C224.342 11.152 225.11 11.36 225.782 11.776C226.454 12.1813 226.972 12.7307 227.334 13.424C227.697 14.1067 227.878 14.864 227.878 15.696ZM223.478 12.752C222.817 12.752 222.252 12.9387 221.782 13.312C221.324 13.6853 221.02 14.1973 220.87 14.848H226.102C225.996 14.4107 225.82 14.0373 225.574 13.728C225.329 13.408 225.025 13.168 224.662 13.008C224.31 12.8373 223.916 12.752 223.478 12.752ZM233.795 11.36H241.331V20H239.571V12.976H235.571V20H233.795V11.36ZM248.498 11.152C249.351 11.152 250.119 11.3493 250.802 11.744C251.484 12.128 252.018 12.6667 252.402 13.36C252.786 14.0533 252.978 14.8267 252.978 15.68C252.978 16.9813 252.551 18.064 251.698 18.928C250.855 19.7813 249.788 20.208 248.498 20.208C247.388 20.208 246.434 19.8613 245.634 19.168V23.104H243.858V11.36H245.058L245.394 12.416C246.226 11.5733 247.26 11.152 248.498 11.152ZM246.338 17.712C246.871 18.2453 247.543 18.512 248.354 18.512C249.175 18.512 249.852 18.2453 250.386 17.712C250.919 17.168 251.186 16.4907 251.186 15.68C251.186 14.8693 250.919 14.1973 250.386 13.664C249.852 13.12 249.18 12.848 248.37 12.848C247.836 12.848 247.351 12.9707 246.914 13.216C246.476 13.4613 246.135 13.8027 245.89 14.24C245.655 14.6667 245.538 15.1467 245.538 15.68C245.538 16.4907 245.804 17.168 246.338 17.712ZM262.121 11.36H263.497V20H262.057L261.881 18.944C261.049 19.7867 260.009 20.208 258.761 20.208C257.47 20.208 256.393 19.776 255.529 18.912C254.676 18.048 254.249 16.9707 254.249 15.68C254.249 14.3787 254.676 13.3013 255.529 12.448C256.393 11.584 257.47 11.152 258.761 11.152C260.03 11.152 261.081 11.5787 261.913 12.432L262.121 11.36ZM256.857 17.712C257.401 18.2453 258.078 18.512 258.889 18.512C259.71 18.512 260.382 18.2453 260.905 17.712C261.438 17.168 261.705 16.4907 261.705 15.68C261.705 14.8587 261.438 14.1813 260.905 13.648C260.382 13.1147 259.71 12.848 258.889 12.848C258.356 12.848 257.87 12.9707 257.433 13.216C257.006 13.4613 256.67 13.8027 256.425 14.24C256.18 14.6667 256.057 15.1467 256.057 15.68C256.057 16.4907 256.324 17.168 256.857 17.712ZM271.886 15.488C272.088 15.5733 272.27 15.6853 272.43 15.824C272.6 15.952 272.744 16.1067 272.862 16.288C272.979 16.4587 273.07 16.6507 273.134 16.864C273.198 17.0773 273.23 17.296 273.23 17.52C273.23 18.224 272.974 18.816 272.462 19.296C271.95 19.7653 271.31 20 270.542 20H266.03V11.36H270.478C271.203 11.36 271.795 11.568 272.254 11.984C272.723 12.3893 272.958 12.9173 272.958 13.568C272.958 13.9733 272.862 14.3467 272.67 14.688C272.478 15.0293 272.216 15.296 271.886 15.488ZM271.198 13.856C271.198 13.5573 271.096 13.3173 270.894 13.136C270.702 12.9547 270.446 12.864 270.126 12.864H267.774V14.848H270.126C270.446 14.848 270.702 14.7573 270.894 14.576C271.096 14.3947 271.198 14.1547 271.198 13.856ZM270.222 18.448C270.574 18.448 270.856 18.3467 271.07 18.144C271.294 17.9413 271.406 17.6853 271.406 17.376C271.406 17.056 271.294 16.7947 271.07 16.592C270.846 16.3893 270.558 16.288 270.206 16.288H267.774V18.448H270.222ZM282.465 11.36H283.841V20H282.401L282.225 18.944C281.393 19.7867 280.353 20.208 279.105 20.208C277.814 20.208 276.737 19.776 275.873 18.912C275.019 18.048 274.593 16.9707 274.593 15.68C274.593 14.3787 275.019 13.3013 275.873 12.448C276.737 11.584 277.814 11.152 279.105 11.152C280.374 11.152 281.425 11.5787 282.257 12.432L282.465 11.36ZM277.201 17.712C277.745 18.2453 278.422 18.512 279.233 18.512C280.054 18.512 280.726 18.2453 281.249 17.712C281.782 17.168 282.049 16.4907 282.049 15.68C282.049 14.8587 281.782 14.1813 281.249 13.648C280.726 13.1147 280.054 12.848 279.233 12.848C278.699 12.848 278.214 12.9707 277.777 13.216C277.35 13.4613 277.014 13.8027 276.769 14.24C276.523 14.6667 276.401 15.1467 276.401 15.68C276.401 16.4907 276.667 17.168 277.201 17.712ZM295.237 15.408C295.994 15.856 296.373 16.5547 296.373 17.504C296.373 18.304 296.053 18.9547 295.413 19.456C294.773 19.9573 293.951 20.208 292.949 20.208C291.978 20.208 291.183 19.9573 290.565 19.456C289.957 18.944 289.626 18.2613 289.573 17.408H291.189C291.253 17.7813 291.439 18.0747 291.749 18.288C292.058 18.5013 292.458 18.608 292.949 18.608C293.45 18.608 293.855 18.496 294.165 18.272C294.474 18.0373 294.629 17.7387 294.629 17.376C294.629 17.024 294.49 16.736 294.213 16.512C293.946 16.288 293.589 16.176 293.141 16.176H292.021V14.8H293.141C293.546 14.8 293.866 14.7093 294.101 14.528C294.335 14.336 294.453 14.08 294.453 13.76C294.453 13.4187 294.314 13.1467 294.037 12.944C293.759 12.7413 293.391 12.64 292.933 12.64C292.517 12.64 292.17 12.736 291.893 12.928C291.626 13.12 291.466 13.3867 291.413 13.728H289.797C289.839 12.96 290.154 12.3413 290.741 11.872C291.338 11.392 292.085 11.152 292.981 11.152C293.898 11.152 294.65 11.3867 295.237 11.856C295.834 12.3253 296.133 12.9173 296.133 13.632C296.133 14.4 295.834 14.992 295.237 15.408ZM305.543 11.36H306.919V20H305.479L305.303 18.944C304.471 19.7867 303.431 20.208 302.183 20.208C300.892 20.208 299.815 19.776 298.951 18.912C298.098 18.048 297.671 16.9707 297.671 15.68C297.671 14.3787 298.098 13.3013 298.951 12.448C299.815 11.584 300.892 11.152 302.183 11.152C303.452 11.152 304.503 11.5787 305.335 12.432L305.543 11.36ZM300.279 17.712C300.823 18.2453 301.5 18.512 302.311 18.512C303.132 18.512 303.804 18.2453 304.327 17.712C304.86 17.168 305.127 16.4907 305.127 15.68C305.127 14.8587 304.86 14.1813 304.327 13.648C303.804 13.1147 303.132 12.848 302.311 12.848C301.778 12.848 301.292 12.9707 300.855 13.216C300.428 13.4613 300.092 13.8027 299.847 14.24C299.602 14.6667 299.479 15.1467 299.479 15.68C299.479 16.4907 299.746 17.168 300.279 17.712ZM320.412 18.368H321.58V22.176H319.964V20H309.452V11.36H311.196V18.368H314.092V11.36H315.788V18.368H318.668V11.36H320.412V18.368ZM329.788 11.36H330.78V20H329.084V14.512L324.476 20H323.452V11.36H325.164V16.8L329.788 11.36ZM344.271 18.368H345.439V22.176H343.823V20H333.311V11.36H335.055V18.368H337.951V11.36H339.647V18.368H342.527V11.36H344.271V18.368ZM355.363 15.696C355.363 15.856 355.352 16.0533 355.331 16.288H348.323C348.429 16.9813 348.717 17.5307 349.187 17.936C349.667 18.3413 350.259 18.544 350.963 18.544C351.304 18.544 351.624 18.496 351.923 18.4C352.221 18.2933 352.483 18.1493 352.707 17.968C352.941 17.776 353.133 17.5467 353.283 17.28H355.155C354.813 18.1973 354.269 18.9173 353.523 19.44C352.776 19.952 351.923 20.208 350.963 20.208C349.693 20.208 348.632 19.776 347.779 18.912C346.936 18.048 346.515 16.9707 346.515 15.68C346.515 14.3893 346.936 13.312 347.779 12.448C348.632 11.584 349.693 11.152 350.963 11.152C351.827 11.152 352.595 11.36 353.267 11.776C353.939 12.1813 354.456 12.7307 354.819 13.424C355.181 14.1067 355.363 14.864 355.363 15.696ZM350.963 12.752C350.301 12.752 349.736 12.9387 349.267 13.312C348.808 13.6853 348.504 14.1973 348.355 14.848H353.587C353.48 14.4107 353.304 14.0373 353.059 13.728C352.813 13.408 352.509 13.168 352.147 13.008C351.795 12.8373 351.4 12.752 350.963 12.752ZM363.008 11.36H364.752V20H363.008V16.384H359.008V20H357.248V11.36H359.008V14.752H363.008V11.36ZM370.864 13.92C371.813 13.92 372.581 14.2027 373.168 14.768C373.754 15.3333 374.048 16.0693 374.048 16.976C374.048 17.872 373.754 18.6027 373.168 19.168C372.581 19.7227 371.813 20 370.864 20H367.28V11.36H369.024V13.92H370.864ZM375.552 11.36H377.328V20H375.552V11.36ZM370.656 18.464C371.136 18.464 371.525 18.3307 371.824 18.064C372.122 17.7867 372.272 17.424 372.272 16.976C372.272 16.6773 372.202 16.416 372.064 16.192C371.936 15.9573 371.749 15.776 371.504 15.648C371.258 15.52 370.976 15.456 370.656 15.456H369.024V18.464H370.656ZM379.634 20V17.952H381.586V20H379.634Z" fill="white"/>
</svg>
