<svg width="89" height="88" viewBox="0 0 89 88" fill="none" xmlns="http://www.w3.org/2000/svg">
<rect x="0.333008" width="88" height="88" rx="16" fill="#E2E9F3"/>
<path d="M57.317 71.9801C64.413 71.9801 69.357 63.7561 71.917 59.5721C72.2212 59.0875 72.3648 58.5194 72.3275 57.9485C72.2902 57.3775 72.0737 56.8329 71.709 56.3921L62.341 45.0161C59.885 42.0361 55.001 42.2041 52.793 45.3441L49.933 49.4241C49.933 49.4241 48.037 51.2641 46.933 51.2641C45.825 51.2641 39.825 56.1601 39.825 56.1601L37.457 67.2081C40.337 63.1001 42.485 64.5401 43.933 65.3001C48.313 67.5961 52.017 71.9801 57.317 71.9801Z" fill="url(#paint0_radial_60_394)"/>
<path d="M57.317 71.9801C64.413 71.9801 69.357 63.7561 71.917 59.5721C72.2212 59.0875 72.3648 58.5194 72.3275 57.9485C72.2902 57.3775 72.0737 56.8329 71.709 56.3921L62.341 45.0161C59.885 42.0361 55.001 42.2041 52.793 45.3441L49.933 49.4241C49.933 49.4241 48.037 51.2641 46.933 51.2641C45.825 51.2641 39.825 56.1601 39.825 56.1601L37.457 67.2081C40.337 63.1001 42.485 64.5401 43.933 65.3001C48.313 67.5961 52.017 71.9801 57.317 71.9801Z" fill="url(#paint1_radial_60_394)" fill-opacity="0.5"/>
<path d="M31.3493 42.8799C24.2533 42.8799 19.3093 51.1039 16.7493 55.2879C16.4451 55.7725 16.3015 56.3406 16.3388 56.9115C16.3762 57.4825 16.5926 58.0271 16.9573 58.4679L26.3253 69.8439C28.7813 72.8239 33.6653 72.6559 35.8773 69.5159L51.2133 47.6519C48.3293 51.7599 46.1813 50.3199 44.7333 49.5599C40.3533 47.2639 36.6493 42.8799 31.3493 42.8799Z" fill="url(#paint2_linear_60_394)"/>
<path d="M31.3493 42.8799C24.2533 42.8799 19.3093 51.1039 16.7493 55.2879C16.4451 55.7725 16.3015 56.3406 16.3388 56.9115C16.3762 57.4825 16.5926 58.0271 16.9573 58.4679L26.3253 69.8439C28.7813 72.8239 33.6653 72.6559 35.8773 69.5159L51.2133 47.6519C48.3293 51.7599 46.1813 50.3199 44.7333 49.5599C40.3533 47.2639 36.6493 42.8799 31.3493 42.8799Z" fill="url(#paint3_radial_60_394)"/>
<path d="M31.3493 42.8799C24.2533 42.8799 19.3093 51.1039 16.7493 55.2879C16.4451 55.7725 16.3015 56.3406 16.3388 56.9115C16.3762 57.4825 16.5926 58.0271 16.9573 58.4679L26.3253 69.8439C28.7813 72.8239 33.6653 72.6559 35.8773 69.5159L51.2133 47.6519C48.3293 51.7599 46.1813 50.3199 44.7333 49.5599C40.3533 47.2639 36.6493 42.8799 31.3493 42.8799Z" fill="url(#paint4_linear_60_394)"/>
<path d="M32.333 36C36.7513 36 40.333 32.4183 40.333 28C40.333 23.5817 36.7513 20 32.333 20C27.9147 20 24.333 23.5817 24.333 28C24.333 32.4183 27.9147 36 32.333 36Z" fill="url(#paint5_linear_60_394)"/>
<path d="M32.333 36C36.7513 36 40.333 32.4183 40.333 28C40.333 23.5817 36.7513 20 32.333 20C27.9147 20 24.333 23.5817 24.333 28C24.333 32.4183 27.9147 36 32.333 36Z" fill="url(#paint6_radial_60_394)"/>
<path d="M32.333 36C36.7513 36 40.333 32.4183 40.333 28C40.333 23.5817 36.7513 20 32.333 20C27.9147 20 24.333 23.5817 24.333 28C24.333 32.4183 27.9147 36 32.333 36Z" fill="url(#paint7_radial_60_394)"/>
<path d="M56.333 36C60.7513 36 64.333 32.4183 64.333 28C64.333 23.5817 60.7513 20 56.333 20C51.9147 20 48.333 23.5817 48.333 28C48.333 32.4183 51.9147 36 56.333 36Z" fill="url(#paint8_linear_60_394)"/>
<path d="M56.333 36C60.7513 36 64.333 32.4183 64.333 28C64.333 23.5817 60.7513 20 56.333 20C51.9147 20 48.333 23.5817 48.333 28C48.333 32.4183 51.9147 36 56.333 36Z" fill="url(#paint9_radial_60_394)"/>
<path d="M56.333 36C60.7513 36 64.333 32.4183 64.333 28C64.333 23.5817 60.7513 20 56.333 20C51.9147 20 48.333 23.5817 48.333 28C48.333 32.4183 51.9147 36 56.333 36Z" fill="url(#paint10_radial_60_394)"/>
<defs>
<radialGradient id="paint0_radial_60_394" cx="0" cy="0" r="1" gradientUnits="userSpaceOnUse" gradientTransform="translate(37.493 52.2161) rotate(21.9848) scale(40.078 27.9949)">
<stop offset="0.136" stop-color="#003580"/>
<stop offset="0.366" stop-color="#0057AA"/>
<stop offset="1" stop-color="#0FAFFF"/>
</radialGradient>
<radialGradient id="paint1_radial_60_394" cx="0" cy="0" r="1" gradientUnits="userSpaceOnUse" gradientTransform="translate(35.1307 51.1952) rotate(37.46) scale(20.5053 19.6744)">
<stop stop-color="#76EB95"/>
<stop offset="0.407" stop-color="#76EB95" stop-opacity="0.338"/>
<stop offset="1" stop-color="#76EB95" stop-opacity="0"/>
</radialGradient>
<linearGradient id="paint2_linear_60_394" x1="47.7253" y1="42.8799" x2="34.1133" y2="76.9919" gradientUnits="userSpaceOnUse">
<stop stop-color="#3BD5FF"/>
<stop offset="1" stop-color="#0095FF"/>
</linearGradient>
<radialGradient id="paint3_radial_60_394" cx="0" cy="0" r="1" gradientUnits="userSpaceOnUse" gradientTransform="translate(50.0493 43.9799) rotate(111.85) scale(34.3621 35.7962)">
<stop stop-color="#2BDABE"/>
<stop offset="0.443" stop-color="#13ACCF"/>
<stop offset="1" stop-color="#0078D4"/>
</radialGradient>
<linearGradient id="paint4_linear_60_394" x1="30.3333" y1="60.3559" x2="29.2533" y2="39.1719" gradientUnits="userSpaceOnUse">
<stop stop-color="#16BBDA" stop-opacity="0"/>
<stop offset="1" stop-color="#76EB95"/>
</linearGradient>
<linearGradient id="paint5_linear_60_394" x1="28.333" y1="20" x2="36.057" y2="35.264" gradientUnits="userSpaceOnUse">
<stop stop-color="#3BD5FF"/>
<stop offset="1" stop-color="#006EE3"/>
</linearGradient>
<radialGradient id="paint6_radial_60_394" cx="0" cy="0" r="1" gradientUnits="userSpaceOnUse" gradientTransform="translate(33.3985 19.9976) rotate(113.199) scale(16.247)">
<stop stop-color="#2BDABE"/>
<stop offset="0.518" stop-color="#16BBDA"/>
<stop offset="0.75" stop-color="#119FC5"/>
<stop offset="1" stop-color="#0078D4"/>
</radialGradient>
<radialGradient id="paint7_radial_60_394" cx="0" cy="0" r="1" gradientTransform="matrix(12.3635 -14.5456 15.0569 12.7982 37.417 22.184)" gradientUnits="userSpaceOnUse">
<stop stop-color="#76EB95"/>
<stop offset="1" stop-color="#16BBDA" stop-opacity="0"/>
</radialGradient>
<linearGradient id="paint8_linear_60_394" x1="52.333" y1="20" x2="60.057" y2="35.264" gradientUnits="userSpaceOnUse">
<stop stop-color="#3BD5FF"/>
<stop offset="1" stop-color="#006EE3"/>
</linearGradient>
<radialGradient id="paint9_radial_60_394" cx="0" cy="0" r="1" gradientUnits="userSpaceOnUse" gradientTransform="translate(57.4016 20.0022) rotate(113.199) scale(16.247)">
<stop stop-color="#2BDABE"/>
<stop offset="0.518" stop-color="#16BBDA"/>
<stop offset="0.75" stop-color="#119FC5"/>
<stop offset="1" stop-color="#0078D4"/>
</radialGradient>
<radialGradient id="paint10_radial_60_394" cx="0" cy="0" r="1" gradientTransform="matrix(12.3635 -14.5456 15.0569 12.7982 61.421 22.18)" gradientUnits="userSpaceOnUse">
<stop stop-color="#76EB95"/>
<stop offset="1" stop-color="#16BBDA" stop-opacity="0"/>
</radialGradient>
</defs>
</svg>
