<svg width="89" height="88" viewBox="0 0 89 88" fill="none" xmlns="http://www.w3.org/2000/svg">
<rect x="0.333008" width="88" height="88" rx="16" fill="#E2E9F3"/>
<path d="M21.4012 36.6121C22.4526 33.3906 24.1744 30.4282 26.4532 27.9201C26.6435 27.7152 26.8893 27.5702 27.1606 27.5027C27.432 27.4352 27.7171 27.4482 27.9812 27.5401L33.4212 29.4761C33.8076 29.613 34.2191 29.6647 34.6274 29.6276C35.0357 29.5904 35.4311 29.4653 35.7865 29.2609C36.1418 29.0564 36.4487 28.7774 36.686 28.4431C36.9233 28.1087 37.0854 27.727 37.1612 27.3241L38.2012 21.6601C38.2499 21.3839 38.3804 21.1287 38.5758 20.9276C38.7712 20.7265 39.0225 20.5887 39.2972 20.5321C42.6205 19.8305 46.0538 19.8305 49.3772 20.5321C49.9372 20.6521 50.3692 21.0961 50.4732 21.6601L51.5132 27.3241C51.5877 27.7277 51.749 28.1102 51.986 28.4453C52.223 28.7804 52.53 29.0599 52.8857 29.2646C53.2414 29.4693 53.6374 29.5942 54.0462 29.6307C54.455 29.6672 54.8668 29.6145 55.2532 29.4761L60.6932 27.5401C60.9573 27.4482 61.2424 27.4352 61.5137 27.5027C61.785 27.5702 62.0309 27.7152 62.2212 27.9201C64.4985 30.4286 66.2189 33.3909 67.2692 36.6121C67.3568 36.8784 67.3625 37.1649 67.2855 37.4344C67.2085 37.704 67.0523 37.9443 66.8372 38.1241L62.4292 41.8481C62.1153 42.112 61.8631 42.4414 61.69 42.8131C61.5169 43.1849 61.4272 43.59 61.4272 44.0001C61.4272 44.4101 61.5169 44.8152 61.69 45.187C61.8631 45.5587 62.1153 45.8881 62.4292 46.1521L66.8372 49.8761C67.2772 50.2481 67.4452 50.8441 67.2692 51.3881C66.2189 54.6092 64.4985 57.5715 62.2212 60.0801C62.0309 60.2849 61.785 60.4299 61.5137 60.4974C61.2424 60.5649 60.9573 60.5519 60.6932 60.4601L55.2532 58.5241C54.8667 58.3871 54.4552 58.3354 54.0469 58.3725C53.6386 58.4097 53.2432 58.5348 52.8879 58.7393C52.5325 58.9437 52.2256 59.2227 51.9883 59.557C51.751 59.8914 51.5889 60.2731 51.5132 60.6761L50.4732 66.3401C50.4242 66.6168 50.2931 66.8723 50.0969 67.0735C49.9007 67.2747 49.6485 67.4121 49.3732 67.4681C46.0511 68.1691 42.6193 68.1691 39.2972 67.4681C39.0218 67.4121 38.7696 67.2747 38.5734 67.0735C38.3772 66.8723 38.2461 66.6168 38.1972 66.3401L37.1612 60.6761C37.0867 60.2725 36.9253 59.8899 36.6883 59.5548C36.4513 59.2197 36.1444 58.9402 35.7886 58.7355C35.4329 58.5308 35.0369 58.4059 34.6282 58.3694C34.2194 58.3329 33.8075 58.3857 33.4212 58.5241L27.9812 60.4601C27.7171 60.5519 27.432 60.5649 27.1606 60.4974C26.8893 60.4299 26.6435 60.2849 26.4532 60.0801C24.1758 57.5715 22.4554 54.6092 21.4052 51.3881C21.3175 51.1218 21.3118 50.8353 21.3888 50.5657C21.4659 50.2961 21.622 50.0559 21.8372 49.8761L26.2452 46.1521C26.5584 45.8877 26.8101 45.5582 26.9828 45.1865C27.1555 44.8148 27.2449 44.4099 27.2449 44.0001C27.2449 43.5902 27.1555 43.1853 26.9828 42.8136C26.8101 42.4419 26.5584 42.1124 26.2452 41.8481L21.8372 38.1241C21.622 37.9443 21.4659 37.704 21.3888 37.4344C21.3118 37.1649 21.3135 36.8784 21.4012 36.6121ZM37.3332 44.0001C37.3332 45.8566 38.0707 47.6371 39.3834 48.9498C40.6962 50.2626 42.4767 51.0001 44.3332 51.0001C46.1897 51.0001 47.9702 50.2626 49.2829 48.9498C50.5957 47.6371 51.3332 45.8566 51.3332 44.0001C51.3332 42.1435 50.5957 40.3631 49.2829 39.0503C47.9702 37.7376 46.1897 37.0001 44.3332 37.0001C42.4767 37.0001 40.6962 37.7376 39.3834 39.0503C38.0707 40.3631 37.3332 42.1435 37.3332 44.0001Z" fill="url(#paint0_linear_60_397)"/>
<defs>
<linearGradient id="paint0_linear_60_397" x1="55.8292" y1="66.1361" x2="28.9972" y2="24.3441" gradientUnits="userSpaceOnUse">
<stop stop-color="#70777D"/>
<stop offset="1" stop-color="#B9C0C7"/>
</linearGradient>
</defs>
</svg>
