<svg width="65" height="64" viewBox="0 0 65 64" fill="none" xmlns="http://www.w3.org/2000/svg">
<path d="M60.5 32C60.5 47.464 47.964 60 32.5 60C17.036 60 4.5 47.464 4.5 32C4.5 16.536 17.036 4 32.5 4C47.964 4 60.5 16.536 60.5 32Z" fill="url(#paint0_linear_58_54)"/>
<path d="M45.9138 25.414C46.2782 25.0368 46.4797 24.5316 46.4752 24.0072C46.4706 23.4828 46.2603 22.9812 45.8895 22.6104C45.5187 22.2396 45.017 22.0292 44.4926 22.0247C43.9682 22.0201 43.463 22.2217 43.0858 22.586L29.4998 36.172L22.9138 29.586C22.5366 29.2217 22.0314 29.0201 21.507 29.0247C20.9826 29.0292 20.481 29.2396 20.1102 29.6104C19.7394 29.9812 19.529 30.4828 19.5245 31.0072C19.5199 31.5316 19.7215 32.0368 20.0858 32.414L28.0858 40.414C28.4609 40.789 28.9695 40.9996 29.4998 40.9996C30.0302 40.9996 30.5388 40.789 30.9138 40.414L45.9138 25.414Z" fill="url(#paint1_linear_58_54)"/>
<defs>
<linearGradient id="paint0_linear_58_54" x1="6.5" y1="14.5" x2="45.146" y2="54.652" gradientUnits="userSpaceOnUse">
<stop stop-color="#52D17C"/>
<stop offset="1" stop-color="#22918B"/>
</linearGradient>
<linearGradient id="paint1_linear_58_54" x1="24.5618" y1="23.938" x2="28.8238" y2="45.32" gradientUnits="userSpaceOnUse">
<stop stop-color="white"/>
<stop offset="1" stop-color="#E3FFD9"/>
</linearGradient>
</defs>
</svg>
