<svg width="48" height="48" viewBox="0 0 48 48" fill="none" xmlns="http://www.w3.org/2000/svg">
<rect x="0.5" y="0.5" width="47" height="47" rx="7.5" stroke="white"/>
<path d="M24.0008 25.4L19.1008 30.3C18.9174 30.4833 18.6841 30.575 18.4008 30.575C18.1174 30.575 17.8841 30.4833 17.7008 30.3C17.5174 30.1167 17.4258 29.8833 17.4258 29.6C17.4258 29.3167 17.5174 29.0833 17.7008 28.9L22.6008 24L17.7008 19.1C17.5174 18.9167 17.4258 18.6833 17.4258 18.4C17.4258 18.1167 17.5174 17.8833 17.7008 17.7C17.8841 17.5167 18.1174 17.425 18.4008 17.425C18.6841 17.425 18.9174 17.5167 19.1008 17.7L24.0008 22.6L28.9008 17.7C29.0841 17.5167 29.3174 17.425 29.6008 17.425C29.8841 17.425 30.1174 17.5167 30.3008 17.7C30.4841 17.8833 30.5758 18.1167 30.5758 18.4C30.5758 18.6833 30.4841 18.9167 30.3008 19.1L25.4008 24L30.3008 28.9C30.4841 29.0833 30.5758 29.3167 30.5758 29.6C30.5758 29.8833 30.4841 30.1167 30.3008 30.3C30.1174 30.4833 29.8841 30.575 29.6008 30.575C29.3174 30.575 29.0841 30.4833 28.9008 30.3L24.0008 25.4Z" fill="white"/>
</svg>
