<svg width="24" height="24" viewBox="0 0 24 24" fill="none" xmlns="http://www.w3.org/2000/svg">
<path d="M12.0001 6.25C12.1499 6.25003 12.2963 6.29492 12.4203 6.37886C12.5444 6.46281 12.6404 6.58197 12.6961 6.721C13.0501 7.607 13.4891 8.166 13.9361 8.519C14.3801 8.872 14.8681 9.049 15.3661 9.113C16.3931 9.246 17.4471 8.901 18.0981 8.614L18.1151 8.607C18.2081 8.566 18.3121 8.52 18.4011 8.487H18.4061C18.5814 8.42004 18.772 8.40375 18.9561 8.44C19.0883 8.46934 19.2126 8.52688 19.3205 8.60869C19.4283 8.6905 19.5172 8.79464 19.5811 8.914C19.7051 9.144 19.6911 9.376 19.6861 9.452V9.454C19.6791 9.548 19.6631 9.658 19.6501 9.753C19.3881 11.586 19.1221 13.418 18.8651 15.251C18.7351 16.171 18.2461 16.744 17.3311 17.009C13.8458 17.9968 10.1545 17.9968 6.66915 17.009C5.75415 16.744 5.26415 16.171 5.13515 15.251C4.87815 13.418 4.61215 11.586 4.35015 9.753C4.3344 9.65382 4.32239 9.55408 4.31415 9.454V9.452C4.29835 9.26639 4.33472 9.08005 4.41915 8.914C4.48305 8.79464 4.57197 8.6905 4.67984 8.60869C4.78771 8.52688 4.91198 8.46934 5.04415 8.44C5.22817 8.40343 5.41876 8.41938 5.59415 8.486L5.59815 8.488C5.68815 8.52 5.79215 8.566 5.88515 8.607L5.90215 8.614C6.55215 8.901 7.60615 9.246 8.63215 9.114C9.15565 9.05201 9.6517 8.84605 10.0651 8.519C10.5101 8.166 10.9491 7.607 11.3041 6.721C11.3599 6.58197 11.4559 6.46281 11.58 6.37886C11.704 6.29492 11.8504 6.25003 12.0001 6.25Z" fill="#FFA600"/>
</svg>
