<svg width="89" height="88" viewBox="0 0 89 88" fill="none" xmlns="http://www.w3.org/2000/svg">
<rect x="0.666992" width="88" height="88" rx="16" fill="#E2E9F3"/>
<path d="M38.2676 24.7999C38.2676 23.1025 38.9419 21.4747 40.1421 20.2744C41.3423 19.0742 42.9702 18.3999 44.6676 18.3999C46.365 18.3999 47.9928 19.0742 49.1931 20.2744C50.3933 21.4747 51.0676 23.1025 51.0676 24.7999V63.1999C51.0676 64.8973 50.3933 66.5252 49.1931 67.7254C47.9928 68.9256 46.365 69.5999 44.6676 69.5999C42.9702 69.5999 41.3423 68.9256 40.1421 67.7254C38.9419 66.5252 38.2676 64.8973 38.2676 63.1999V24.7999Z" fill="url(#paint0_linear_60_398)"/>
<path d="M57.4678 37.6C57.4678 35.9026 58.1421 34.2747 59.3423 33.0745C60.5425 31.8742 62.1704 31.2 63.8678 31.2C65.5652 31.2 67.193 31.8742 68.3933 33.0745C69.5935 34.2747 70.2678 35.9026 70.2678 37.6V63.2C70.2678 64.8973 69.5935 66.5252 68.3933 67.7254C67.193 68.9257 65.5652 69.6 63.8678 69.6C62.1704 69.6 60.5425 68.9257 59.3423 67.7254C58.1421 66.5252 57.4678 64.8973 57.4678 63.2V37.6Z" fill="url(#paint1_linear_60_398)"/>
<path d="M19.0674 50.4C19.0674 48.7026 19.7417 47.0748 20.9419 45.8745C22.1421 44.6743 23.77 44 25.4674 44C27.1648 44 28.7926 44.6743 29.9929 45.8745C31.1931 47.0748 31.8674 48.7026 31.8674 50.4V63.2C31.8674 64.8974 31.1931 66.5252 29.9929 67.7255C28.7926 68.9257 27.1648 69.6 25.4674 69.6C23.77 69.6 22.1421 68.9257 20.9419 67.7255C19.7417 66.5252 19.0674 64.8974 19.0674 63.2V50.4Z" fill="url(#paint2_linear_60_398)"/>
<defs>
<linearGradient id="paint0_linear_60_398" x1="50.002" y1="60.2143" x2="41.1572" y2="18.2911" gradientUnits="userSpaceOnUse">
<stop stop-color="#6D37CD"/>
<stop offset="1" stop-color="#EA71EF"/>
</linearGradient>
<linearGradient id="paint1_linear_60_398" x1="69.2022" y1="62.56" x2="64.1302" y2="30.5216" gradientUnits="userSpaceOnUse">
<stop stop-color="#E23CB4"/>
<stop offset="1" stop-color="#EA71EF"/>
</linearGradient>
<linearGradient id="paint2_linear_60_398" x1="20.6674" y1="45.0656" x2="45.141" y2="59.5424" gradientUnits="userSpaceOnUse">
<stop stop-color="#36DFF1"/>
<stop offset="1" stop-color="#0078D4"/>
</linearGradient>
</defs>
</svg>
