<svg width="88" height="88" viewBox="0 0 88 88" fill="none" xmlns="http://www.w3.org/2000/svg">
<rect width="88" height="88" rx="16" fill="#E2E9F3"/>
<path d="M52 44L65.18 35.76C66.0418 35.2214 66.7527 34.4727 67.2459 33.5841C67.7392 32.6956 67.9986 31.6963 68 30.68V26C68 24.4087 67.3679 22.8826 66.2426 21.7574C65.1174 20.6321 63.5913 20 62 20H52L50 32L52 44Z" fill="url(#paint0_linear_60_392)"/>
<path d="M36 20H26C24.4087 20 22.8826 20.6321 21.7574 21.7574C20.6321 22.8826 20 24.4087 20 26V30.676C20 32.744 21.064 34.668 22.82 35.764L36 44L38 32L36 20Z" fill="url(#paint1_linear_60_392)"/>
<path d="M52 20H36V44L40.82 47.012C41.7736 47.608 42.8755 47.924 44 47.924C45.1245 47.924 46.2264 47.608 47.18 47.012L52 44V20Z" fill="url(#paint2_linear_60_392)"/>
<path d="M56 56C56 59.1826 54.7357 62.2348 52.4853 64.4853C50.2348 66.7357 47.1826 68 44 68C40.8174 68 37.7652 66.7357 35.5147 64.4853C33.2643 62.2348 32 59.1826 32 56C32 52.8174 33.2643 49.7652 35.5147 47.5147C37.7652 45.2643 40.8174 44 44 44C47.1826 44 50.2348 45.2643 52.4853 47.5147C54.7357 49.7652 56 52.8174 56 56Z" fill="url(#paint3_radial_60_392)"/>
<defs>
<linearGradient id="paint0_linear_60_392" x1="68" y1="22.136" x2="50.548" y2="41.248" gradientUnits="userSpaceOnUse">
<stop stop-color="#52D17C"/>
<stop offset="1" stop-color="#1A7F7C"/>
</linearGradient>
<linearGradient id="paint1_linear_60_392" x1="20" y1="26.464" x2="37.788" y2="38.64" gradientUnits="userSpaceOnUse">
<stop stop-color="#52D17C"/>
<stop offset="1" stop-color="#1A7F7C"/>
</linearGradient>
<linearGradient id="paint2_linear_60_392" x1="44" y1="16.508" x2="54.272" y2="44.1" gradientUnits="userSpaceOnUse">
<stop stop-color="#76EB95"/>
<stop offset="1" stop-color="#1EC8B0"/>
</linearGradient>
<radialGradient id="paint3_radial_60_392" cx="0" cy="0" r="1" gradientUnits="userSpaceOnUse" gradientTransform="translate(-19.8558 -39.9998) rotate(56.615) scale(133.962 114.732)">
<stop offset="0.772" stop-color="#FFCD0F"/>
<stop offset="0.991" stop-color="#E67505"/>
</radialGradient>
</defs>
</svg>
