<svg width="48" height="48" viewBox="0 0 48 48" fill="none" xmlns="http://www.w3.org/2000/svg">
<rect x="0.5" y="0.5" width="47" height="47" rx="7.5" stroke="#0A1E3B"/>
<path d="M16 30C15.7167 30 15.4793 29.904 15.288 29.712C15.0967 29.52 15.0007 29.2827 15 29C14.9993 28.7173 15.0953 28.48 15.288 28.288C15.4807 28.096 15.718 28 16 28H32C32.2833 28 32.521 28.096 32.713 28.288C32.905 28.48 33.0007 28.7173 33 29C32.9993 29.2827 32.9033 29.5203 32.712 29.713C32.5207 29.9057 32.2833 30.0013 32 30H16ZM16 25C15.7167 25 15.4793 24.904 15.288 24.712C15.0967 24.52 15.0007 24.2827 15 24C14.9993 23.7173 15.0953 23.48 15.288 23.288C15.4807 23.096 15.718 23 16 23H32C32.2833 23 32.521 23.096 32.713 23.288C32.905 23.48 33.0007 23.7173 33 24C32.9993 24.2827 32.9033 24.5203 32.712 24.713C32.5207 24.9057 32.2833 25.0013 32 25H16ZM16 20C15.7167 20 15.4793 19.904 15.288 19.712C15.0967 19.52 15.0007 19.2827 15 19C14.9993 18.7173 15.0953 18.48 15.288 18.288C15.4807 18.096 15.718 18 16 18H32C32.2833 18 32.521 18.096 32.713 18.288C32.905 18.48 33.0007 18.7173 33 19C32.9993 19.2827 32.9033 19.5203 32.712 19.713C32.5207 19.9057 32.2833 20.0013 32 20H16Z" fill="#0A1E3B"/>
</svg>
