<svg width="65" height="64" viewBox="0 0 65 64" fill="none" xmlns="http://www.w3.org/2000/svg">
<path d="M45.8333 52C43.8813 52 42.2147 51.8134 40.7933 51.488C32.5 49.616 32.5 43.2 32.5 43.2C32.5 41.6441 33.1181 40.1519 34.2183 39.0517C35.3185 37.9515 36.8107 37.3334 38.3667 37.3334C43.3587 37.3334 48.348 37.3014 53.3373 37.3334C54.8868 37.3432 56.3694 37.9657 57.4616 39.0648C58.5537 40.164 59.1667 41.6506 59.1667 43.2C59.1667 43.2 59.1667 50.8667 48.3267 51.888C47.5551 51.9609 46.724 51.9983 45.8333 52Z" fill="url(#paint0_linear_58_57)"/>
<path d="M45.8333 52C43.8813 52 42.2147 51.8134 40.7933 51.488C32.5 49.616 32.5 43.2 32.5 43.2C32.5 41.6441 33.1181 40.1519 34.2183 39.0517C35.3185 37.9515 36.8107 37.3334 38.3667 37.3334C43.3587 37.3334 48.348 37.3014 53.3373 37.3334C54.8868 37.3432 56.3694 37.9657 57.4616 39.0648C58.5537 40.164 59.1667 41.6506 59.1667 43.2C59.1667 43.2 59.1667 50.8667 48.3267 51.888C47.5551 51.9609 46.724 51.9983 45.8333 52Z" fill="url(#paint1_radial_58_57)" fill-opacity="0.5"/>
<path d="M11.833 37.3334C10.2417 37.3334 8.71559 37.9655 7.59037 39.0907C6.46515 40.216 5.83301 41.7421 5.83301 43.3334V44C5.83301 44 5.83301 56 21.833 56C37.833 56 37.833 44 37.833 44V43.3334C37.833 41.7421 37.2009 40.216 36.0756 39.0907C34.9504 37.9655 33.4243 37.3334 31.833 37.3334H11.833Z" fill="url(#paint2_linear_58_57)"/>
<path d="M11.833 37.3334C10.2417 37.3334 8.71559 37.9655 7.59037 39.0907C6.46515 40.216 5.83301 41.7421 5.83301 43.3334V44C5.83301 44 5.83301 56 21.833 56C37.833 56 37.833 44 37.833 44V43.3334C37.833 41.7421 37.2009 40.216 36.0756 39.0907C34.9504 37.9655 33.4243 37.3334 31.833 37.3334H11.833Z" fill="url(#paint3_linear_58_57)"/>
<path d="M45.833 32C47.9547 32 49.9896 31.1571 51.4899 29.6569C52.9902 28.1566 53.833 26.1217 53.833 24C53.833 21.8783 52.9902 19.8434 51.4899 18.3431C49.9896 16.8429 47.9547 16 45.833 16C43.7113 16 41.6764 16.8429 40.1762 18.3431C38.6759 19.8434 37.833 21.8783 37.833 24C37.833 26.1217 38.6759 28.1566 40.1762 29.6569C41.6764 31.1571 43.7113 32 45.833 32Z" fill="url(#paint4_linear_58_57)"/>
<path d="M21.8327 32C24.6617 32 27.3748 30.8762 29.3752 28.8758C31.3755 26.8754 32.4993 24.1623 32.4993 21.3334C32.4993 18.5044 31.3755 15.7913 29.3752 13.7909C27.3748 11.7905 24.6617 10.6667 21.8327 10.6667C19.0037 10.6667 16.2906 11.7905 14.2902 13.7909C12.2898 15.7913 11.166 18.5044 11.166 21.3334C11.166 24.1623 12.2898 26.8754 14.2902 28.8758C16.2906 30.8762 19.0037 32 21.8327 32Z" fill="url(#paint5_linear_58_57)"/>
<defs>
<linearGradient id="paint0_linear_58_57" x1="38.8413" y1="39.272" x2="43.9667" y2="54.136" gradientUnits="userSpaceOnUse">
<stop offset="0.125" stop-color="#9C6CFE"/>
<stop offset="1" stop-color="#7A41DC"/>
</linearGradient>
<radialGradient id="paint1_radial_58_57" cx="0" cy="0" r="1" gradientUnits="userSpaceOnUse" gradientTransform="translate(29.1187 44.6587) rotate(-6.95528) scale(17.6798 17.3142)">
<stop offset="0.392" stop-color="#3B148A"/>
<stop offset="1" stop-color="#3B148A" stop-opacity="0"/>
</radialGradient>
<linearGradient id="paint2_linear_58_57" x1="13.4437" y1="39.816" x2="20.2597" y2="58.472" gradientUnits="userSpaceOnUse">
<stop offset="0.125" stop-color="#BD96FF"/>
<stop offset="1" stop-color="#9C6CFE"/>
</linearGradient>
<linearGradient id="paint3_linear_58_57" x1="21.833" y1="35.112" x2="31.4517" y2="65.9227" gradientUnits="userSpaceOnUse">
<stop stop-color="#885EDB" stop-opacity="0"/>
<stop offset="1" stop-color="#E362F8"/>
</linearGradient>
<linearGradient id="paint4_linear_58_57" x1="41.6383" y1="18.128" x2="49.793" y2="31.1467" gradientUnits="userSpaceOnUse">
<stop offset="0.125" stop-color="#9C6CFE"/>
<stop offset="1" stop-color="#7A41DC"/>
</linearGradient>
<linearGradient id="paint5_linear_58_57" x1="16.238" y1="13.5014" x2="27.1127" y2="30.864" gradientUnits="userSpaceOnUse">
<stop offset="0.125" stop-color="#BD96FF"/>
<stop offset="1" stop-color="#9C6CFE"/>
</linearGradient>
</defs>
</svg>
