<svg width="88" height="88" viewBox="0 0 88 88" fill="none" xmlns="http://www.w3.org/2000/svg">
<rect width="88" height="88" rx="16" fill="#E2E9F3"/>
<g clip-path="url(#clip0_60_399)">
<path d="M56 38C56 40.3638 55.5344 42.7044 54.6298 44.8883C53.7253 47.0722 52.3994 49.0565 50.7279 50.7279C49.0565 52.3994 47.0722 53.7253 44.8883 54.6298C42.7044 55.5344 40.3638 56 38 56C35.6362 56 33.2956 55.5344 31.1117 54.6298C28.9278 53.7253 26.9435 52.3994 25.2721 50.7279C23.6006 49.0565 22.2748 47.0722 21.3702 44.8883C20.4656 42.7044 20 40.3638 20 38C20 33.2261 21.8964 28.6477 25.2721 25.2721C28.6477 21.8964 33.2261 20 38 20C42.7739 20 47.3523 21.8964 50.7279 25.2721C54.1036 28.6477 56 33.2261 56 38Z" fill="url(#paint0_linear_60_399)"/>
<path d="M51.2922 55.532C46.8499 58.8999 41.2947 60.4558 35.7493 59.8852C30.2039 59.3147 25.0819 56.6602 21.4185 52.4583C17.755 48.2564 15.8234 42.8204 16.0138 37.249C16.2043 31.6776 18.5028 26.3863 22.4446 22.4444C26.3865 18.5025 31.6779 16.2041 37.2493 16.0136C42.8207 15.8231 48.2566 17.7548 52.4585 21.4182C56.6604 25.0817 59.3149 30.2037 59.8855 35.7491C60.456 41.2945 58.9001 46.8497 55.5322 51.292L67.1202 62.88C67.415 63.1546 67.6514 63.4858 67.8153 63.8538C67.9793 64.2218 68.0675 64.6191 68.0746 65.0219C68.0817 65.4247 68.0076 65.8248 67.8567 66.1984C67.7058 66.5719 67.4812 66.9112 67.1964 67.1961C66.9115 67.481 66.5722 67.7056 66.1986 67.8565C65.825 68.0073 65.4249 68.0814 65.0221 68.0743C64.6193 68.0672 64.222 67.9791 63.8541 67.8151C63.4861 67.6511 63.1549 67.4147 62.8802 67.12L51.2922 55.532ZM54.0002 38C54.0002 33.7565 52.3145 29.6868 49.3139 26.6863C46.3133 23.6857 42.2437 22 38.0002 22C33.7567 22 29.6871 23.6857 26.6865 26.6863C23.6859 29.6868 22.0002 33.7565 22.0002 38C22.0002 42.2434 23.6859 46.3131 26.6865 49.3137C29.6871 52.3143 33.7567 54 38.0002 54C42.2437 54 46.3133 52.3143 49.3139 49.3137C52.3145 46.3131 54.0002 42.2434 54.0002 38Z" fill="url(#paint1_linear_60_399)"/>
<path d="M75.1323 44.8519L72.0723 43.8599C71.1411 43.5502 70.2948 43.0278 69.6005 42.3342C68.9062 41.6406 68.383 40.7948 68.0723 39.8639L67.0803 36.8079C66.9975 36.5717 66.8433 36.367 66.6391 36.2221C66.4348 36.0773 66.1907 35.9995 65.9403 35.9995C65.6899 35.9995 65.4458 36.0773 65.2415 36.2221C65.0373 36.367 64.8831 36.5717 64.8003 36.8079L63.8003 39.8639C63.4965 40.7876 62.9836 41.6287 62.3016 42.3218C61.6196 43.0148 60.7869 43.5412 59.8683 43.8599L56.8083 44.8519C56.5738 44.9366 56.3712 45.0914 56.2279 45.2954C56.0847 45.4994 56.0078 45.7427 56.0078 45.9919C56.0078 46.2412 56.0847 46.4844 56.2279 46.6884C56.3712 46.8924 56.5738 47.0473 56.8083 47.1319L59.8683 48.1279C60.8008 48.4389 61.6479 48.9631 62.3423 49.6589C63.0367 50.3547 63.5592 51.2028 63.8683 52.1359L64.8603 55.1919C64.9431 55.4282 65.0973 55.6329 65.3015 55.7777C65.5057 55.9226 65.7499 56.0004 66.0003 56.0004C66.2507 56.0004 66.4948 55.9226 66.6991 55.7777C66.9033 55.6329 67.0575 55.4282 67.1403 55.1919L68.1363 52.1359C68.4466 51.2055 68.9692 50.36 69.6628 49.6664C70.3563 48.9729 71.2018 48.4502 72.1323 48.1399L75.1923 47.1479C75.4268 47.0633 75.6294 46.9084 75.7727 46.7044C75.9159 46.5004 75.9928 46.2572 75.9928 46.0079C75.9928 45.7587 75.9159 45.5154 75.7727 45.3114C75.6294 45.1074 75.4268 44.9526 75.1923 44.8679L75.1323 44.8519Z" fill="url(#paint2_radial_60_399)"/>
<path d="M55.5122 13.128L56.9042 17.412C57.3359 18.715 58.0664 19.899 59.0374 20.8693C60.0084 21.8395 61.1929 22.5692 62.4962 23L66.7842 24.392L66.8682 24.416C67.1986 24.5323 67.4848 24.7483 67.6872 25.0342C67.8897 25.32 67.9984 25.6617 67.9984 26.012C67.9984 26.3623 67.8897 26.7039 67.6872 26.9898C67.4848 27.2757 67.1986 27.4917 66.8682 27.608L62.5842 29C61.2801 29.4302 60.0948 30.1596 59.1231 31.13C58.1514 32.1003 57.4203 33.2845 56.9882 34.588L55.5962 38.868C55.4799 39.1984 55.2639 39.4846 54.978 39.687C54.6922 39.8894 54.3505 39.9982 54.0002 39.9982C53.6499 39.9982 53.3083 39.8894 53.0224 39.687C52.7365 39.4846 52.5205 39.1984 52.4042 38.868L51.0122 34.588C50.5833 33.2801 49.8536 32.091 48.8817 31.1164C47.9099 30.1417 46.7229 29.4086 45.4162 28.976L41.1282 27.584C40.7978 27.4677 40.5116 27.2517 40.3092 26.9658C40.1068 26.6799 39.998 26.3383 39.998 25.988C39.998 25.6377 40.1068 25.296 40.3092 25.0102C40.5116 24.7243 40.7978 24.5083 41.1282 24.392L45.4162 23C46.704 22.5581 47.8717 21.8235 48.8275 20.8538C49.7832 19.8842 50.501 18.706 50.9242 17.412L52.3162 13.132C52.4317 12.8002 52.6476 12.5125 52.9339 12.309C53.2203 12.1055 53.5629 11.9961 53.9142 11.9961C54.2655 11.9961 54.6082 12.1055 54.8945 12.309C55.1809 12.5125 55.3968 12.7962 55.5122 13.128Z" fill="url(#paint3_radial_60_399)"/>
</g>
<defs>
<linearGradient id="paint0_linear_60_399" x1="47" y1="26" x2="20" y2="56" gradientUnits="userSpaceOnUse">
<stop stop-color="#FDFDFD"/>
<stop offset="1" stop-color="#B3E0FF"/>
</linearGradient>
<linearGradient id="paint1_linear_60_399" x1="18.7362" y1="62.528" x2="62.5282" y2="26.948" gradientUnits="userSpaceOnUse">
<stop stop-color="#0094F0"/>
<stop offset="1" stop-color="#29C3FF"/>
</linearGradient>
<radialGradient id="paint2_radial_60_399" cx="0" cy="0" r="1" gradientUnits="userSpaceOnUse" gradientTransform="translate(21.5003 -39.2521) rotate(63.379) scale(114.455 89.1232)">
<stop offset="0.718" stop-color="#FFCD0F"/>
<stop offset="0.991" stop-color="#E67505"/>
</radialGradient>
<radialGradient id="paint3_radial_60_399" cx="0" cy="0" r="1" gradientUnits="userSpaceOnUse" gradientTransform="translate(5.24665 -58.5004) rotate(61.2) scale(120.392 93.7464)">
<stop offset="0.698" stop-color="#FFCD0F"/>
<stop offset="0.991" stop-color="#E67505"/>
</radialGradient>
<clipPath id="clip0_60_399">
<rect width="64" height="64" fill="white" transform="translate(12 12)"/>
</clipPath>
</defs>
</svg>
