<svg width="65" height="64" viewBox="0 0 65 64" fill="none" xmlns="http://www.w3.org/2000/svg">
<path d="M26.9999 8H14.4999C14.1288 8.00001 13.765 8.10328 13.4492 8.29825C13.1335 8.49323 12.8782 8.77221 12.7119 9.104L4.71191 25.104H22.7239L26.9999 8Z" fill="url(#paint0_linear_58_45)"/>
<path d="M42.276 25.104L38 8H50.5C50.8711 8.00001 51.2349 8.10328 51.5507 8.29825C51.8664 8.49323 52.1217 8.77221 52.288 9.104L60.288 25.104H42.276Z" fill="url(#paint1_linear_58_45)"/>
<path d="M24.56 9.516C24.668 9.08314 24.9176 8.6988 25.2691 8.4241C25.6206 8.1494 26.0539 8.00012 26.5 8H38.5C38.9461 8.00012 39.3794 8.1494 39.7309 8.4241C40.0825 8.6988 40.332 9.08314 40.44 9.516L44.44 25.516C44.48 25.676 44.5 25.8373 44.5 26H20.5C20.5002 25.8368 20.5203 25.6743 20.56 25.516L24.56 9.516Z" fill="url(#paint2_linear_58_45)"/>
<path d="M22.7718 24H5.26377L4.71177 25.104C4.53876 25.4485 4.46899 25.8356 4.51086 26.2188C4.55273 26.6021 4.70445 26.965 4.94777 27.264L30.9478 59.264C31.132 59.49 31.3634 59.673 31.6257 59.8001C31.8881 59.9272 32.1751 59.9955 32.4666 60.0001C32.7581 60.0047 33.0471 59.9454 33.3133 59.8266C33.5795 59.7077 33.8166 59.5321 34.0078 59.312L22.7718 24Z" fill="url(#paint3_linear_58_45)"/>
<path d="M30.9922 59.312L42.2282 24H59.7362L60.2882 25.104C60.4612 25.4485 60.531 25.8356 60.4891 26.2188C60.4472 26.6021 60.2955 26.965 60.0522 27.264L34.0522 59.264C33.868 59.49 33.6366 59.673 33.3742 59.8001C33.1119 59.9272 32.8249 59.9955 32.5334 60.0001C32.2418 60.0047 31.9529 59.9454 31.6866 59.8266C31.4204 59.7077 31.1834 59.5321 30.9922 59.312Z" fill="url(#paint4_linear_58_45)"/>
<path d="M20.9402 24L20.5602 25.516C20.4715 25.8721 20.4826 26.2458 20.5922 26.596L30.5922 58.596C30.7198 59.0021 30.9736 59.3569 31.3168 59.6087C31.6599 59.8606 32.0745 59.9964 32.5002 59.9964C32.9258 59.9964 33.3404 59.8606 33.6835 59.6087C34.0267 59.3569 34.2806 59.0021 34.4082 58.596L44.4082 26.596C44.5177 26.2458 44.5288 25.8721 44.4402 25.516L44.0602 24H20.9402Z" fill="url(#paint5_linear_58_45)"/>
<path d="M14.4998 8C14.1287 8.00002 13.7649 8.10329 13.4491 8.29826C13.1333 8.49323 12.878 8.77222 12.7118 9.104L4.71177 25.104C4.53876 25.4485 4.46899 25.8356 4.51086 26.2188C4.55273 26.6021 4.70445 26.965 4.94777 27.264L30.9478 59.264C31.1353 59.4947 31.3719 59.6807 31.6404 59.8085C31.9089 59.9363 32.2024 60.0025 32.4998 60.0025C32.7971 60.0025 33.0907 59.9363 33.3592 59.8085C33.6276 59.6807 33.8642 59.4947 34.0518 59.264L60.0518 27.264C60.2957 26.9654 60.4482 26.6027 60.4908 26.2194C60.5333 25.8362 60.4642 25.4489 60.2918 25.104L52.2918 9.104C52.1252 8.77161 51.8693 8.49222 51.5527 8.29721C51.2362 8.10219 50.8716 7.99927 50.4998 8H14.4998Z" fill="url(#paint6_linear_58_45)" fill-opacity="0.7"/>
<defs>
<linearGradient id="paint0_linear_58_45" x1="23.8159" y1="0.872001" x2="14.5519" y2="23.04" gradientUnits="userSpaceOnUse">
<stop stop-color="#9FF0F9"/>
<stop offset="1" stop-color="#29C3FF"/>
</linearGradient>
<linearGradient id="paint1_linear_58_45" x1="45.96" y1="8" x2="56.516" y2="34.528" gradientUnits="userSpaceOnUse">
<stop stop-color="#0FAFFF"/>
<stop offset="1" stop-color="#102784"/>
</linearGradient>
<linearGradient id="paint2_linear_58_45" x1="32.5" y1="8" x2="32.5" y2="30.5" gradientUnits="userSpaceOnUse">
<stop stop-color="#3BD5FF"/>
<stop offset="1" stop-color="#367AF2"/>
</linearGradient>
<linearGradient id="paint3_linear_58_45" x1="9.70777" y1="16.8" x2="31.7718" y2="59.36" gradientUnits="userSpaceOnUse">
<stop stop-color="#0094F0"/>
<stop offset="1" stop-color="#6CE0FF"/>
</linearGradient>
<linearGradient id="paint4_linear_58_45" x1="67.4442" y1="6" x2="34.5682" y2="55.312" gradientUnits="userSpaceOnUse">
<stop stop-color="#1B44B1"/>
<stop offset="1" stop-color="#2052CB"/>
</linearGradient>
<linearGradient id="paint5_linear_58_45" x1="32.4842" y1="11.4" x2="32.4842" y2="60" gradientUnits="userSpaceOnUse">
<stop stop-color="#2052CB"/>
<stop offset="1" stop-color="#0FAFFF"/>
</linearGradient>
<linearGradient id="paint6_linear_58_45" x1="-1.18823" y1="-40.968" x2="43.5558" y2="64.212" gradientUnits="userSpaceOnUse">
<stop offset="0.533" stop-color="#FF6CE8" stop-opacity="0"/>
<stop offset="1" stop-color="#FF6CE8"/>
</linearGradient>
</defs>
</svg>
